<svg xmlns="http://www.w3.org/2000/svg" xmlns:xlink="http://www.w3.org/1999/xlink" width="500" zoomAndPan="magnify" viewBox="0 0 375 374.999991" height="500" preserveAspectRatio="xMidYMid meet" version="1.0"><defs><clipPath id="fa34a8114e"><path d="M 223 31.375 L 343.375 31.375 L 343.375 110 L 223 110 Z M 223 31.375 " clip-rule="nonzero"/></clipPath><clipPath id="24a3571ab7"><path d="M 223 145 L 343.375 145 L 343.375 224 L 223 224 Z M 223 145 " clip-rule="nonzero"/></clipPath><clipPath id="ca813a4b82"><path d="M 223 265 L 343.375 265 L 343.375 343.375 L 223 343.375 Z M 223 265 " clip-rule="nonzero"/></clipPath><clipPath id="00d39f0d3b"><path d="M 31.375 83 L 198 83 L 198 292 L 31.375 292 Z M 31.375 83 " clip-rule="nonzero"/></clipPath></defs><g clip-path="url(#fa34a8114e)"><path fill="#ffffff" d="M 342.207031 49.5 C 341.238281 48.078125 339.628906 47.21875 337.902344 47.21875 L 310.472656 47.21875 L 306.460938 35.1875 C 305.753906 33.0625 303.777344 31.632812 301.535156 31.632812 L 228.800781 31.632812 C 227.28125 31.632812 225.84375 32.292969 224.855469 33.445312 C 223.871094 34.597656 223.433594 36.121094 223.667969 37.617188 L 234.058594 105.160156 L 234.078125 105.152344 C 234.191406 105.902344 234.453125 106.632812 234.890625 107.277344 C 235.855469 108.707031 237.464844 109.566406 239.191406 109.566406 L 317.121094 109.566406 C 319.246094 109.566406 321.152344 108.269531 321.949219 106.300781 L 342.730469 54.347656 C 343.371094 52.742188 343.171875 50.929688 342.207031 49.5 Z M 234.859375 42.023438 L 297.789062 42.023438 L 299.519531 47.21875 L 259.972656 47.21875 C 257.847656 47.21875 255.941406 48.511719 255.144531 50.480469 L 241.429688 84.765625 Z M 313.605469 99.171875 L 246.863281 99.171875 L 263.488281 57.609375 L 330.234375 57.609375 Z M 313.605469 99.171875 " fill-opacity="1" fill-rule="nonzero"/></g><g clip-path="url(#24a3571ab7)"><path fill="#ffffff" d="M 342.207031 163.800781 C 341.238281 162.375 339.628906 161.519531 337.902344 161.519531 L 310.472656 161.519531 L 306.460938 149.488281 C 305.753906 147.363281 303.777344 145.933594 301.535156 145.933594 L 228.800781 145.933594 C 227.28125 145.933594 225.84375 146.59375 224.855469 147.746094 C 223.871094 148.898438 223.433594 150.421875 223.667969 151.917969 L 234.058594 219.457031 L 234.078125 219.453125 C 234.191406 220.203125 234.453125 220.933594 234.890625 221.578125 C 235.855469 223.007812 237.464844 223.863281 239.191406 223.863281 L 317.121094 223.863281 C 319.246094 223.863281 321.152344 222.570312 321.949219 220.601562 L 342.730469 168.648438 C 343.371094 167.042969 343.171875 165.230469 342.207031 163.800781 Z M 234.859375 156.324219 L 297.789062 156.324219 L 299.519531 161.519531 L 259.972656 161.519531 C 257.847656 161.519531 255.941406 162.8125 255.144531 164.78125 L 241.429688 199.066406 Z M 313.605469 213.472656 L 246.863281 213.472656 L 263.488281 171.910156 L 330.234375 171.910156 Z M 313.605469 213.472656 " fill-opacity="1" fill-rule="nonzero"/></g><g clip-path="url(#ca813a4b82)"><path fill="#ffffff" d="M 321.949219 340.097656 L 342.730469 288.140625 C 343.371094 286.542969 343.171875 284.730469 342.207031 283.300781 C 341.238281 281.871094 339.628906 281.015625 337.902344 281.015625 L 310.472656 281.015625 L 306.460938 268.980469 C 305.753906 266.855469 303.777344 265.429688 301.535156 265.429688 L 228.800781 265.429688 C 227.28125 265.429688 225.84375 266.085938 224.855469 267.242188 C 223.871094 268.394531 223.433594 269.917969 223.667969 271.414062 L 234.058594 338.953125 L 234.078125 338.949219 C 234.191406 339.695312 234.453125 340.429688 234.890625 341.074219 C 235.855469 342.503906 237.464844 343.359375 239.191406 343.359375 L 317.121094 343.359375 C 319.246094 343.359375 321.152344 342.066406 321.949219 340.097656 Z M 234.859375 275.820312 L 297.789062 275.820312 L 299.519531 281.015625 L 259.972656 281.015625 C 257.847656 281.015625 255.941406 282.308594 255.144531 284.277344 L 241.429688 318.5625 Z M 246.863281 332.96875 L 263.488281 291.40625 L 330.234375 291.40625 L 313.609375 332.96875 Z M 246.863281 332.96875 " fill-opacity="1" fill-rule="nonzero"/></g><path fill="#ffffff" d="M 109.304688 62.804688 L 119.695312 62.804688 L 119.695312 73.195312 L 109.304688 73.195312 Z M 109.304688 62.804688 " fill-opacity="1" fill-rule="nonzero"/><path fill="#ffffff" d="M 109.304688 42.023438 L 119.695312 42.023438 L 119.695312 52.414062 L 109.304688 52.414062 Z M 109.304688 42.023438 " fill-opacity="1" fill-rule="nonzero"/><path fill="#ffffff" d="M 130.085938 42.023438 L 140.476562 42.023438 L 140.476562 52.414062 L 130.085938 52.414062 Z M 130.085938 42.023438 " fill-opacity="1" fill-rule="nonzero"/><path fill="#ffffff" d="M 150.867188 42.023438 L 161.257812 42.023438 L 161.257812 52.414062 L 150.867188 52.414062 Z M 150.867188 42.023438 " fill-opacity="1" fill-rule="nonzero"/><path fill="#ffffff" d="M 171.648438 42.023438 L 182.039062 42.023438 L 182.039062 52.414062 L 171.648438 52.414062 Z M 171.648438 42.023438 " fill-opacity="1" fill-rule="nonzero"/><path fill="#ffffff" d="M 192.433594 42.023438 L 202.824219 42.023438 L 202.824219 52.414062 L 192.433594 52.414062 Z M 192.433594 42.023438 " fill-opacity="1" fill-rule="nonzero"/><path fill="#ffffff" d="M 109.304688 301.796875 L 119.695312 301.796875 L 119.695312 312.1875 L 109.304688 312.1875 Z M 109.304688 301.796875 " fill-opacity="1" fill-rule="nonzero"/><path fill="#ffffff" d="M 109.304688 322.578125 L 119.695312 322.578125 L 119.695312 332.96875 L 109.304688 332.96875 Z M 109.304688 322.578125 " fill-opacity="1" fill-rule="nonzero"/><path fill="#ffffff" d="M 130.085938 322.578125 L 140.476562 322.578125 L 140.476562 332.96875 L 130.085938 332.96875 Z M 130.085938 322.578125 " fill-opacity="1" fill-rule="nonzero"/><path fill="#ffffff" d="M 150.867188 322.578125 L 161.257812 322.578125 L 161.257812 332.96875 L 150.867188 332.96875 Z M 150.867188 322.578125 " fill-opacity="1" fill-rule="nonzero"/><path fill="#ffffff" d="M 171.648438 322.578125 L 182.039062 322.578125 L 182.039062 332.96875 L 171.648438 332.96875 Z M 171.648438 322.578125 " fill-opacity="1" fill-rule="nonzero"/><path fill="#ffffff" d="M 192.433594 322.578125 L 202.824219 322.578125 L 202.824219 332.96875 L 192.433594 332.96875 Z M 192.433594 322.578125 " fill-opacity="1" fill-rule="nonzero"/><g clip-path="url(#00d39f0d3b)"><path fill="#ffffff" d="M 114.5 291.40625 C 151.160156 291.40625 188.042969 281.066406 196.722656 268.359375 C 197.308594 267.496094 197.628906 266.472656 197.628906 265.429688 L 197.628906 117.359375 C 197.628906 95.421875 154.800781 83.585938 114.5 83.585938 C 74.199219 83.585938 31.375 95.421875 31.375 117.359375 L 31.375 265.429688 C 31.375 266.472656 31.691406 267.496094 32.277344 268.359375 C 41.40625 281.710938 75.980469 291.40625 114.5 291.40625 Z M 114.5 93.976562 C 159.566406 93.976562 187.238281 107.59375 187.238281 117.359375 C 187.238281 127.121094 159.566406 140.738281 114.5 140.738281 C 69.433594 140.738281 41.765625 127.121094 41.765625 117.359375 C 41.765625 107.59375 69.433594 93.976562 114.5 93.976562 Z M 41.765625 134.300781 C 56.894531 145.308594 86.289062 151.128906 114.5 151.128906 C 142.710938 151.128906 172.105469 145.308594 187.238281 134.300781 L 187.238281 161.519531 C 187.238281 171.28125 159.566406 184.898438 114.5 184.898438 C 69.433594 184.898438 41.765625 171.28125 41.765625 161.519531 Z M 41.765625 178.460938 C 56.894531 189.46875 86.289062 195.289062 114.5 195.289062 C 142.710938 195.289062 172.105469 189.46875 187.238281 178.460938 L 187.238281 214.199219 C 179.511719 222.824219 149.546875 231.65625 114.5 231.65625 C 79.453125 231.65625 49.488281 222.824219 41.765625 214.199219 Z M 41.765625 227.167969 C 56.789062 236.121094 84.414062 242.046875 114.5 242.046875 C 144.585938 242.046875 172.210938 236.121094 187.238281 227.167969 L 187.238281 263.605469 C 179.984375 271.214844 150.527344 281.015625 114.5 281.015625 C 79.554688 281.015625 49.597656 272.234375 41.765625 263.628906 Z M 41.765625 227.167969 " fill-opacity="1" fill-rule="nonzero"/></g></svg>