<svg xmlns="http://www.w3.org/2000/svg" xmlns:xlink="http://www.w3.org/1999/xlink" width="500" zoomAndPan="magnify" viewBox="0 0 375 374.999991" height="500" preserveAspectRatio="xMidYMid meet" version="1.0"><defs><clipPath id="808070cd8f"><path d="M 144 33.902344 L 264 33.902344 L 264 88 L 144 88 Z M 144 33.902344 " clip-rule="nonzero"/></clipPath><clipPath id="b5e98380ed"><path d="M 63.46875 184 L 155 184 L 155 284 L 63.46875 284 Z M 63.46875 184 " clip-rule="nonzero"/></clipPath><clipPath id="2a777ea4c1"><path d="M 173 200 L 311.71875 200 L 311.71875 336 L 173 336 Z M 173 200 " clip-rule="nonzero"/></clipPath></defs><path fill="#ffffff" d="M 203.847656 194.453125 C 201.734375 194.453125 199.601562 194.359375 197.445312 194.164062 C 170.902344 191.804688 150.109375 168.417969 150.109375 140.917969 L 150.109375 109.21875 C 150.109375 106.25 152.515625 103.839844 155.488281 103.839844 C 158.464844 103.839844 160.871094 106.25 160.871094 109.21875 L 160.871094 140.917969 C 160.871094 162.894531 177.355469 181.578125 198.402344 183.449219 C 213.117188 184.746094 226.722656 180.78125 235.722656 172.554688 C 243.066406 165.832031 246.949219 156.664062 246.949219 146.035156 L 246.949219 109.21875 C 246.949219 106.25 249.355469 103.839844 252.328125 103.839844 C 255.300781 103.839844 257.707031 106.25 257.707031 109.21875 L 257.707031 146.035156 C 257.707031 159.761719 252.617188 171.675781 242.980469 180.492188 C 233.125 189.507812 219.117188 194.453125 203.847656 194.453125 Z M 203.847656 194.453125 " fill-opacity="1" fill-rule="nonzero"/><path fill="#ffffff" d="M 155.488281 152.261719 L 150.109375 152.261719 C 138.242188 152.261719 128.589844 142.605469 128.589844 130.738281 C 128.589844 118.875 138.242188 109.21875 150.109375 109.21875 L 155.488281 109.21875 C 158.464844 109.21875 160.871094 111.628906 160.871094 114.601562 L 160.871094 146.878906 C 160.871094 149.851562 158.464844 152.261719 155.488281 152.261719 Z M 150.109375 119.980469 C 144.175781 119.980469 139.347656 124.804688 139.347656 130.738281 C 139.347656 136.675781 144.175781 141.5 150.109375 141.5 Z M 150.109375 119.980469 " fill-opacity="1" fill-rule="nonzero"/><path fill="#ffffff" d="M 257.707031 152.261719 L 252.328125 152.261719 C 249.355469 152.261719 246.949219 149.851562 246.949219 146.878906 L 246.949219 114.601562 C 246.949219 111.628906 249.355469 109.21875 252.328125 109.21875 L 257.707031 109.21875 C 269.578125 109.21875 279.226562 118.875 279.226562 130.738281 C 279.226562 142.605469 269.578125 152.261719 257.707031 152.261719 Z M 257.707031 119.980469 L 257.707031 141.5 C 263.640625 141.5 268.46875 136.675781 268.46875 130.738281 C 268.46875 124.804688 263.640625 119.980469 257.707031 119.980469 Z M 257.707031 119.980469 " fill-opacity="1" fill-rule="nonzero"/><path fill="#ffffff" d="M 253.347656 113.195312 C 252.894531 113.195312 252.4375 113.171875 251.980469 113.136719 L 205.21875 109.238281 L 158.453125 113.136719 C 152.839844 113.585938 147.480469 111.175781 144.128906 106.644531 C 140.785156 102.113281 140.039062 96.285156 142.128906 91.058594 L 146.421875 80.324219 C 147.242188 78.28125 149.214844 76.941406 151.417969 76.941406 L 259.015625 76.941406 C 261.21875 76.941406 263.195312 78.28125 264.011719 80.324219 L 268.304688 91.058594 C 270.394531 96.285156 269.652344 102.113281 266.304688 106.644531 C 263.226562 110.808594 258.460938 113.195312 253.347656 113.195312 Z M 158.007812 107.777344 L 158.058594 107.777344 Z M 205.21875 98.460938 C 205.363281 98.460938 205.515625 98.464844 205.664062 98.480469 L 252.875 102.414062 C 255.597656 102.652344 257.113281 100.972656 257.644531 100.25 C 258.179688 99.523438 259.320312 97.566406 258.3125 95.054688 L 255.375 87.699219 L 155.058594 87.699219 L 152.121094 95.054688 C 151.113281 97.566406 152.253906 99.523438 152.789062 100.25 C 153.320312 100.972656 154.835938 102.621094 157.558594 102.414062 L 204.769531 98.480469 C 204.917969 98.464844 205.070312 98.460938 205.21875 98.460938 Z M 205.21875 98.460938 " fill-opacity="1" fill-rule="nonzero"/><g clip-path="url(#808070cd8f)"><path fill="#ffffff" d="M 257.707031 87.699219 L 150.109375 87.699219 C 147.136719 87.699219 144.730469 85.292969 144.730469 82.320312 L 144.730469 54.398438 C 144.730469 46.074219 150.976562 39.167969 159.261719 38.335938 L 203.371094 33.925781 C 203.730469 33.890625 204.085938 33.890625 204.445312 33.925781 L 248.554688 38.335938 C 256.839844 39.167969 263.089844 46.074219 263.089844 54.398438 L 263.089844 82.320312 C 263.089844 85.292969 260.683594 87.699219 257.707031 87.699219 Z M 155.488281 76.941406 L 252.328125 76.941406 L 252.328125 54.398438 C 252.328125 51.621094 250.246094 49.320312 247.484375 49.046875 L 203.910156 44.6875 L 160.332031 49.046875 C 157.570312 49.320312 155.488281 51.621094 155.488281 54.398438 Z M 155.488281 76.941406 " fill-opacity="1" fill-rule="nonzero"/></g><path fill="#ffffff" d="M 230.808594 206.058594 C 227.835938 206.058594 225.429688 203.652344 225.429688 200.679688 L 225.429688 184.539062 C 225.429688 181.570312 227.835938 179.160156 230.808594 179.160156 C 233.78125 179.160156 236.1875 181.570312 236.1875 184.539062 L 236.1875 200.679688 C 236.1875 203.652344 233.78125 206.058594 230.808594 206.058594 Z M 230.808594 206.058594 " fill-opacity="1" fill-rule="nonzero"/><path fill="#ffffff" d="M 177.007812 206.058594 C 174.035156 206.058594 171.628906 203.652344 171.628906 200.679688 L 171.628906 184.539062 C 171.628906 181.570312 174.035156 179.160156 177.007812 179.160156 C 179.984375 179.160156 182.390625 181.570312 182.390625 184.539062 L 182.390625 200.679688 C 182.390625 203.652344 179.984375 206.058594 177.007812 206.058594 Z M 177.007812 206.058594 " fill-opacity="1" fill-rule="nonzero"/><path fill="#ffffff" d="M 205.242188 174.050781 C 192.761719 174.050781 183.703125 166.792969 183.695312 156.800781 C 183.695312 153.828125 186.105469 151.417969 189.078125 151.417969 C 192.046875 151.417969 194.457031 153.824219 194.457031 156.792969 C 194.457031 161.558594 200.910156 163.289062 205.25 163.289062 C 205.25 163.289062 205.25 163.289062 205.253906 163.289062 C 209.5625 163.289062 215.976562 161.554688 215.976562 156.800781 C 215.976562 153.828125 218.382812 151.417969 221.355469 151.417969 C 224.324219 151.417969 226.738281 153.824219 226.738281 156.792969 C 226.742188 166.789062 217.707031 174.046875 205.253906 174.050781 C 205.253906 174.050781 205.25 174.050781 205.242188 174.050781 Z M 205.242188 174.050781 " fill-opacity="1" fill-rule="nonzero"/><path fill="#ffffff" d="M 149.441406 319.285156 C 148.679688 319.285156 147.917969 319.253906 147.152344 319.191406 C 139.886719 318.59375 133.285156 315.199219 128.574219 309.632812 L 127.816406 308.75 C 122.617188 302.652344 117.121094 295.496094 117.765625 287.683594 C 118.132812 283.253906 120.414062 279.246094 124.550781 275.769531 L 141.429688 261.417969 L 137.214844 256.484375 C 130.960938 249.152344 131.273438 238.339844 137.9375 231.871094 C 141.761719 228.148438 146.945312 226.207031 152.117188 226.679688 C 156.882812 227.070312 161.222656 229.308594 164.335938 232.984375 L 194.320312 268.355469 C 200.125 275.199219 199.273438 285.488281 192.429688 291.292969 L 167.046875 312.808594 C 162.074219 317.027344 155.886719 319.285156 149.441406 319.285156 Z M 150.667969 237.378906 C 148.773438 237.378906 146.894531 238.164062 145.433594 239.589844 C 142.875 242.074219 142.859375 246.519531 145.402344 249.5 L 153.113281 258.53125 C 154.039062 259.617188 154.496094 261.023438 154.386719 262.453125 C 154.269531 263.878906 153.59375 265.195312 152.503906 266.121094 L 131.496094 283.984375 C 128.671875 286.359375 128.535156 288.023438 128.488281 288.570312 C 128.199219 292.097656 132.125 297.21875 136.003906 301.765625 L 136.769531 302.664062 C 142.675781 309.625 153.128906 310.5 160.089844 304.601562 L 185.472656 283.085938 C 186.597656 282.128906 187.285156 280.800781 187.40625 279.328125 C 187.527344 277.863281 187.066406 276.433594 186.113281 275.308594 L 156.128906 239.941406 C 154.875 238.460938 153.136719 237.554688 151.234375 237.402344 C 151.042969 237.386719 150.855469 237.378906 150.667969 237.378906 Z M 188.949219 287.191406 L 189.003906 287.191406 Z M 188.949219 287.191406 " fill-opacity="1" fill-rule="nonzero"/><path fill="#ffffff" d="M 177.71875 340.84375 C 177.570312 340.84375 177.425781 340.835938 177.277344 340.828125 C 175.851562 340.707031 174.535156 340.027344 173.613281 338.941406 L 154.5 316.390625 C 152.578125 314.125 152.855469 310.730469 155.125 308.808594 C 157.394531 306.882812 160.800781 307.175781 162.707031 309.433594 L 178.34375 327.878906 L 189.464844 318.449219 L 173.832031 300.003906 C 171.90625 297.738281 172.1875 294.34375 174.457031 292.421875 C 176.726562 290.496094 180.125 290.789062 182.035156 293.046875 L 201.152344 315.597656 C 203.074219 317.863281 202.796875 321.253906 200.523438 323.179688 L 181.195312 339.566406 C 180.222656 340.390625 178.988281 340.84375 177.71875 340.84375 Z M 177.71875 340.84375 " fill-opacity="1" fill-rule="nonzero"/><g clip-path="url(#b5e98380ed)"><path fill="#ffffff" d="M 129.519531 283.9375 C 127.992188 283.9375 126.472656 283.292969 125.40625 282.035156 L 106.453125 259.648438 C 105.199219 259.828125 103.9375 259.9375 102.6875 259.984375 C 92.585938 260.398438 83.050781 256.8125 75.667969 249.972656 C 68.285156 243.128906 64.007812 233.832031 63.625 223.792969 C 63.351562 216.804688 64.996094 209.988281 68.371094 204.078125 C 69.429688 202.214844 71.515625 201.171875 73.628906 201.394531 C 75.761719 201.628906 77.554688 203.113281 78.183594 205.160156 L 81.445312 215.757812 L 93.578125 218.523438 L 102.019531 209.410156 L 98.328125 197.507812 L 92.542969 196.171875 C 90.09375 195.605469 88.367188 193.417969 88.375 190.90625 C 88.386719 188.394531 90.136719 186.222656 92.585938 185.675781 C 95.082031 185.121094 97.449219 184.808594 99.828125 184.722656 C 120.472656 184.039062 138.089844 200.164062 138.886719 220.917969 C 139.117188 226.917969 137.929688 232.800781 135.433594 238.144531 L 152.910156 258.722656 C 154.835938 260.988281 154.558594 264.382812 152.296875 266.304688 C 150.03125 268.234375 146.640625 267.960938 144.714844 265.691406 L 124.871094 242.328125 C 123.367188 240.5625 123.167969 238.039062 124.367188 236.058594 C 127.035156 231.652344 128.335938 226.558594 128.136719 221.328125 C 127.691406 209.679688 119.863281 200.023438 109.34375 196.695312 L 113.214844 209.195312 C 113.785156 211.03125 113.332031 213.03125 112.023438 214.445312 L 99.355469 228.113281 C 98.054688 229.535156 96.074219 230.152344 94.21875 229.703125 L 76.023438 225.554688 C 75.472656 225.4375 74.953125 225.226562 74.480469 224.945312 C 75.109375 231.515625 78.089844 237.550781 82.980469 242.078125 C 88.253906 246.964844 95.011719 249.414062 102.285156 249.234375 C 103.949219 249.171875 105.640625 248.941406 107.3125 248.546875 C 109.285156 248.089844 111.335938 248.769531 112.648438 250.308594 L 133.621094 275.078125 C 135.539062 277.347656 135.257812 280.742188 132.992188 282.664062 C 131.976562 283.515625 130.742188 283.9375 129.519531 283.9375 Z M 129.519531 283.9375 " fill-opacity="1" fill-rule="nonzero"/></g><g clip-path="url(#2a777ea4c1)"><path fill="#ffffff" d="M 276.375 335.609375 C 272.648438 335.609375 269.046875 335.046875 265.667969 333.945312 L 176.597656 302.152344 C 173.800781 301.152344 172.339844 298.074219 173.34375 295.28125 C 174.335938 292.480469 177.398438 291.003906 180.214844 292.023438 L 269.144531 323.765625 C 271.304688 324.472656 273.785156 324.847656 276.375 324.847656 C 282.789062 324.847656 289.070312 322.25 293.609375 317.710938 C 298.152344 313.207031 300.746094 306.933594 300.746094 300.476562 L 300.746094 251.089844 C 300.746094 239.164062 292.726562 228.523438 281.242188 225.214844 C 281.039062 225.15625 280.851562 225.09375 280.664062 225.015625 L 246.980469 211.03125 C 244.238281 209.890625 242.933594 206.742188 244.074219 203.996094 C 245.21875 201.253906 248.355469 199.960938 251.109375 201.089844 L 284.519531 214.964844 C 300.425781 219.691406 311.507812 234.503906 311.507812 251.089844 L 311.507812 300.476562 C 311.507812 309.785156 307.75 318.84375 301.199219 325.332031 C 294.675781 331.859375 285.621094 335.609375 276.375 335.609375 Z M 276.375 335.609375 " fill-opacity="1" fill-rule="nonzero"/></g><path fill="#ffffff" d="M 131.441406 335.609375 C 115.050781 335.609375 100.90625 324.238281 97.050781 307.957031 C 96.394531 305.292969 96.308594 302.589844 96.308594 300.527344 L 96.308594 259.859375 C 96.308594 256.886719 98.714844 254.480469 101.691406 254.480469 C 104.664062 254.480469 107.070312 256.886719 107.070312 259.859375 L 107.070312 300.527344 C 107.070312 301.980469 107.117188 303.847656 107.511719 305.4375 C 110.691406 318.859375 121.824219 324.847656 131.441406 324.847656 C 133.554688 324.847656 150.042969 324.082031 160.605469 323.5625 L 172.164062 323.558594 C 175.140625 323.558594 177.546875 325.964844 177.546875 328.9375 C 177.546875 331.910156 175.140625 334.316406 172.164062 334.316406 L 160.871094 334.316406 C 158.414062 334.441406 134.496094 335.609375 131.441406 335.609375 Z M 131.441406 335.609375 " fill-opacity="1" fill-rule="nonzero"/><path fill="#ffffff" d="M 133.160156 223.007812 C 130.96875 223.007812 128.910156 221.664062 128.113281 219.488281 C 127.085938 216.699219 128.515625 213.605469 131.300781 212.578125 L 158.664062 202.664062 C 161.445312 201.652344 164.535156 203.097656 165.550781 205.898438 C 166.558594 208.691406 165.113281 211.777344 162.320312 212.785156 L 135.019531 222.675781 C 134.40625 222.902344 133.78125 223.007812 133.160156 223.007812 Z M 133.160156 223.007812 " fill-opacity="1" fill-rule="nonzero"/><path fill="#ffffff" d="M 263.089844 291.277344 C 262.484375 291.277344 261.878906 291.175781 261.296875 290.972656 L 175.484375 260.683594 C 172.683594 259.691406 171.214844 256.617188 172.203125 253.816406 C 173.195312 251.023438 176.257812 249.566406 179.070312 250.535156 L 257.707031 278.292969 L 257.707031 254.480469 C 257.707031 251.503906 260.113281 249.097656 263.089844 249.097656 C 266.0625 249.097656 268.46875 251.503906 268.46875 254.480469 L 268.46875 285.898438 C 268.46875 287.640625 267.621094 289.28125 266.195312 290.289062 C 265.273438 290.941406 264.1875 291.277344 263.089844 291.277344 Z M 263.089844 291.277344 " fill-opacity="1" fill-rule="nonzero"/><path fill="#ffffff" d="M 203.804688 245.726562 C 202.851562 245.726562 201.90625 245.472656 201.0625 244.976562 L 158.125 219.507812 C 156.492188 218.539062 155.488281 216.78125 155.488281 214.878906 L 155.488281 196.734375 C 155.488281 194.878906 156.445312 193.15625 158.015625 192.171875 C 159.582031 191.1875 161.546875 191.082031 163.21875 191.894531 L 203.910156 211.523438 L 244.605469 191.890625 C 246.265625 191.085938 248.230469 191.195312 249.804688 192.171875 C 251.378906 193.160156 252.328125 194.878906 252.328125 196.734375 L 252.328125 214.878906 C 252.328125 216.78125 251.324219 218.546875 249.679688 219.515625 L 206.542969 244.980469 C 205.695312 245.480469 204.75 245.726562 203.804688 245.726562 Z M 166.25 211.816406 L 203.808594 234.09375 L 241.570312 211.808594 L 241.570312 205.3125 L 206.242188 222.347656 C 204.746094 223.0625 202.988281 223.054688 201.503906 222.308594 L 166.25 205.324219 Z M 166.25 211.816406 " fill-opacity="1" fill-rule="nonzero"/><path fill="#ffffff" d="M 246.953125 202.113281 C 246.824219 202.113281 246.691406 202.109375 246.558594 202.097656 L 230.417969 200.933594 C 227.457031 200.722656 225.230469 198.140625 225.445312 195.179688 C 225.660156 192.214844 228.292969 189.984375 231.199219 190.203125 L 247.335938 191.371094 C 250.300781 191.578125 252.527344 194.160156 252.3125 197.121094 C 252.109375 199.953125 249.75 202.113281 246.953125 202.113281 Z M 246.953125 202.113281 " fill-opacity="1" fill-rule="nonzero"/><path fill="#ffffff" d="M 160.863281 202.113281 C 158.105469 202.113281 155.757812 200.007812 155.511719 197.210938 C 155.246094 194.25 157.433594 191.636719 160.390625 191.375 L 176.53125 189.941406 C 179.574219 189.648438 182.105469 191.867188 182.367188 194.820312 C 182.628906 197.785156 180.445312 200.394531 177.488281 200.660156 L 161.347656 202.09375 C 161.183594 202.109375 161.023438 202.113281 160.863281 202.113281 Z M 160.863281 202.113281 " fill-opacity="1" fill-rule="nonzero"/><path fill="#ffffff" d="M 203.910156 243.71875 C 200.933594 243.71875 198.527344 241.3125 198.527344 238.339844 L 198.527344 216.820312 C 198.527344 213.84375 200.933594 211.4375 203.910156 211.4375 C 206.882812 211.4375 209.289062 213.84375 209.289062 216.820312 L 209.289062 238.339844 C 209.289062 241.3125 206.882812 243.71875 203.910156 243.71875 Z M 203.910156 243.71875 " fill-opacity="1" fill-rule="nonzero"/><path fill="#ffffff" d="M 268.46875 335.179688 L 184.378906 335.179688 C 181.40625 335.179688 179 332.773438 179 329.796875 C 179 326.824219 181.40625 324.417969 184.378906 324.417969 L 268.46875 324.417969 C 271.441406 324.417969 273.847656 326.824219 273.847656 329.796875 C 273.847656 332.773438 271.441406 335.179688 268.46875 335.179688 Z M 268.46875 335.179688 " fill-opacity="1" fill-rule="nonzero"/></svg>